<svg width="18" height="18" viewBox="0 0 18 18" fill="none" xmlns="http://www.w3.org/2000/svg">
<path d="M1.625 0C1.1849 0 0.80404 0.16081 0.48242 0.48242C0.16081 0.80404 0 1.1849 0 1.625V16.25C0 16.6901 0.16081 17.071 0.48242 17.3926C0.80404 17.7142 1.1849 17.875 1.625 17.875H16.25C16.6901 17.875 17.071 17.7142 17.3926 17.3926C17.7142 17.071 17.875 16.6901 17.875 16.25V1.625C17.875 1.1849 17.7142 0.80404 17.3926 0.48242C17.071 0.16081 16.6901 0 16.25 0H1.625ZM1.625 1.625H16.25V16.25H12.0352V10.7656H14.1426L14.4473 8.3281H12.0352V6.7539C12.0352 6.3477 12.1029 6.0599 12.2383 5.8906C12.4245 5.6706 12.7546 5.5605 13.2285 5.5605H14.5488V3.35156C14.1426 3.30078 13.5078 3.27539 12.6445 3.27539C11.6797 3.27539 10.9095 3.55469 10.334 4.1133C9.7754 4.6719 9.4961 5.4674 9.4961 6.5V8.3281H7.3633V10.7656H9.4961V16.25H1.625V1.625Z" fill="white"/>
</svg>
