<svg width="18" height="18" viewBox="0 0 18 18" fill="none" xmlns="http://www.w3.org/2000/svg">
<path d="M3.03321 0C2.44076 0 1.93295 0.211585 1.50977 0.634763C1.08659 1.04101 0.875 1.54883 0.875 2.1582C0.875 2.75064 1.08659 3.25846 1.50977 3.68164C1.93295 4.10482 2.4323 4.3164 3.00781 4.3164C3.60025 4.3164 4.10809 4.10482 4.53128 3.68164C4.95447 3.25846 5.16606 2.75064 5.16606 2.1582C5.16606 1.56575 4.95447 1.05794 4.53128 0.634763C4.12497 0.211585 3.62565 0 3.03321 0ZM13.4942 5.68753C12.6647 5.68753 11.9453 5.88216 11.3359 6.2715C10.8451 6.59306 10.4557 7.02478 10.168 7.56637H10.1172V5.94141H6.56246V17.875H10.2695V11.9589C10.2695 11.3157 10.3034 10.8248 10.3711 10.4863C10.4727 9.97847 10.6589 9.59766 10.9297 9.34378C11.2513 9.05597 11.7083 8.91206 12.3008 8.91206C12.8932 8.91206 13.3418 9.08137 13.6465 9.41991C13.9004 9.69075 14.0697 10.097 14.1543 10.6387C14.2051 10.9603 14.2305 11.4342 14.2305 12.0606V17.875H17.9375V11.3243C17.9375 10.1224 17.8275 9.15759 17.6074 8.42972C17.3536 7.5495 16.9218 6.88088 16.3125 6.42384C15.6354 5.93297 14.6959 5.68753 13.4942 5.68753ZM1.17969 5.94141V17.875H4.88668V5.94141H1.17969Z" fill="white"/>
</svg>
