<svg width="18" height="18" viewBox="0 0 18 18" fill="none" xmlns="http://www.w3.org/2000/svg">
<path d="M5.2559 0C4.3079 0 3.42773 0.23698 2.61523 0.71094C1.81966 1.1849 1.1849 1.82812 0.71094 2.64062C0.23698 3.4362 0 4.3079 0 5.2559V12.6191C0 13.5671 0.23698 14.4473 0.71094 15.2598C1.1849 16.0553 1.81966 16.6901 2.61523 17.1641C3.42773 17.638 4.3079 17.875 5.2559 17.875H12.6191C13.5671 17.875 14.4388 17.638 15.2344 17.1641C16.0469 16.6901 16.6901 16.0553 17.1641 15.2598C17.638 14.4473 17.875 13.5671 17.875 12.6191V5.2559C17.875 4.3079 17.638 3.4362 17.1641 2.64062C16.6901 1.82812 16.0469 1.1849 15.2344 0.71094C14.4388 0.23698 13.5671 0 12.6191 0H5.2559ZM5.2559 1.625H12.6191C13.2793 1.625 13.8887 1.78581 14.4473 2.10742C15.0059 2.42904 15.446 2.86914 15.7676 3.42773C16.0892 3.98633 16.25 4.5957 16.25 5.2559V12.6191C16.25 13.2793 16.0892 13.8887 15.7676 14.4473C15.446 15.0059 15.0059 15.446 14.4473 15.7676C13.8887 16.0892 13.2793 16.25 12.6191 16.25H5.2559C4.5957 16.25 3.98633 16.0892 3.42773 15.7676C2.86914 15.446 2.42904 15.0059 2.10742 14.4473C1.78581 13.8887 1.625 13.2793 1.625 12.6191V5.2559C1.625 4.5957 1.78581 3.98633 2.10742 3.42773C2.42904 2.86914 2.86914 2.42904 3.42773 2.10742C3.98633 1.78581 4.5957 1.625 5.2559 1.625ZM13.7363 3.40234C13.5332 3.40234 13.3555 3.47852 13.2031 3.63086C13.0677 3.76628 13 3.93555 13 4.1387C13 4.3418 13.0677 4.5195 13.2031 4.6719C13.3555 4.8073 13.5332 4.875 13.7363 4.875C13.9395 4.875 14.1087 4.8073 14.2441 4.6719C14.3965 4.5195 14.4727 4.3418 14.4727 4.1387C14.4727 3.93555 14.3965 3.76628 14.2441 3.63086C14.1087 3.47852 13.9395 3.40234 13.7363 3.40234ZM8.9375 4.0625C8.0573 4.0625 7.2448 4.2826 6.5 4.7227C5.7552 5.1628 5.1628 5.7552 4.7227 6.5C4.2826 7.2448 4.0625 8.0573 4.0625 8.9375C4.0625 9.8177 4.2826 10.6302 4.7227 11.375C5.1628 12.1198 5.7552 12.7122 6.5 13.1523C7.2448 13.5924 8.0573 13.8125 8.9375 13.8125C9.8177 13.8125 10.6302 13.5924 11.375 13.1523C12.1198 12.7122 12.7122 12.1198 13.1523 11.375C13.5924 10.6302 13.8125 9.8177 13.8125 8.9375C13.8125 8.0573 13.5924 7.2448 13.1523 6.5C12.7122 5.7552 12.1198 5.1628 11.375 4.7227C10.6302 4.2826 9.8177 4.0625 8.9375 4.0625ZM8.9375 5.6875C9.5299 5.6875 10.0716 5.8314 10.5625 6.1191C11.0703 6.4069 11.4681 6.8047 11.7559 7.3125C12.0436 7.8034 12.1875 8.3451 12.1875 8.9375C12.1875 9.5299 12.0436 10.0801 11.7559 10.5879C11.4681 11.0788 11.0703 11.4681 10.5625 11.7559C10.0716 12.0436 9.5299 12.1875 8.9375 12.1875C8.3451 12.1875 7.7949 12.0436 7.2871 11.7559C6.7962 11.4681 6.4069 11.0788 6.1191 10.5879C5.8314 10.0801 5.6875 9.5299 5.6875 8.9375C5.6875 8.3451 5.8314 7.8034 6.1191 7.3125C6.4069 6.8047 6.7962 6.4069 7.2871 6.1191C7.7949 5.8314 8.3451 5.6875 8.9375 5.6875Z" fill="white"/>
</svg>
