<svg width="20" height="17" viewBox="0 0 20 17" fill="none" xmlns="http://www.w3.org/2000/svg">
<path d="M19.75 2.70704C19.0221 3.02866 18.2604 3.24023 17.4648 3.3418C17.8711 3.08789 18.2266 2.77474 18.5312 2.40234C18.8359 2.01302 19.0645 1.58138 19.2168 1.10742C18.4212 1.58138 17.5749 1.91146 16.6777 2.09766C16.3053 1.69141 15.8652 1.37826 15.3574 1.1582C14.8496 0.938155 14.3164 0.828125 13.7578 0.828125C13.0299 0.828125 12.3613 1.00586 11.752 1.36133C11.1426 1.7168 10.6517 2.20768 10.2793 2.83398C9.9238 3.44336 9.7461 4.1035 9.7461 4.8145C9.7461 5.1361 9.7799 5.4408 9.8477 5.72851C8.2227 5.66081 6.6823 5.2461 5.2266 4.4844C3.82161 3.77344 2.61133 2.80013 1.5957 1.56445C1.24023 2.17383 1.0625 2.84245 1.0625 3.57031C1.0625 4.2474 1.22331 4.8822 1.54492 5.4746C1.86654 6.0671 2.29818 6.541 2.83984 6.8965C2.19661 6.8796 1.5957 6.7103 1.03711 6.3887V6.4395C1.03711 7.4043 1.3418 8.2591 1.95117 9.0039C2.56055 9.7318 3.32227 10.1888 4.23633 10.375C3.89779 10.4596 3.55078 10.502 3.19531 10.502C2.94141 10.502 2.6875 10.485 2.43359 10.4512C2.6875 11.2467 3.15299 11.9069 3.83008 12.4316C4.52409 12.9395 5.3027 13.2018 6.166 13.2188C5.472 13.7604 4.70182 14.1836 3.85547 14.4883C3.00911 14.793 2.12891 14.9453 1.21484 14.9453C0.89323 14.9284 0.57161 14.903 0.25 14.8691C1.14714 15.4447 2.11198 15.8848 3.14453 16.1895C4.19401 16.5111 5.2689 16.6719 6.3691 16.6719C8.1465 16.6719 9.7799 16.3249 11.2695 15.6309C12.6237 15.0046 13.8086 14.1159 14.8242 12.9648C15.7721 11.8984 16.5085 10.6797 17.0332 9.30861C17.5241 7.97141 17.7695 6.6341 17.7695 5.2969L17.7441 4.7637C18.5397 4.2051 19.2083 3.51954 19.75 2.70704Z" fill="white"/>
</svg>
