<svg width="22" height="16" viewBox="0 0 22 16" fill="none" xmlns="http://www.w3.org/2000/svg">
<path d="M21.1071 3.73663C21.1071 3.73663 20.9056 2.26618 20.2853 1.62052C19.4998 0.770759 18.6216 0.766596 18.2188 0.716609C15.3344 0.5 11.004 0.5 11.004 0.5H10.996C10.996 0.5 6.66556 0.5 3.78125 0.716609C3.37842 0.766596 2.50024 0.770759 1.71472 1.62052C1.09436 2.26618 0.896975 3.73663 0.896975 3.73663C0.896975 3.73663 0.6875 5.46528 0.6875 7.18981V8.80606C0.6875 10.5305 0.892944 12.2592 0.892944 12.2592C0.892944 12.2592 1.09436 13.7296 1.7107 14.3753C2.49622 15.225 3.52747 15.1959 3.98669 15.2876C5.63834 15.45 11 15.5 11 15.5C11 15.5 15.3344 15.4917 18.2188 15.2792C18.6216 15.2292 19.4998 15.225 20.2853 14.3753C20.9056 13.7296 21.1071 12.2592 21.1071 12.2592C21.1071 12.2592 21.3125 10.5347 21.3125 8.80606V7.18981C21.3125 5.46528 21.1071 3.73663 21.1071 3.73663ZM8.86906 10.768V4.77378L14.4402 7.78128L8.86906 10.768Z" fill="white"/>
</svg>
